<?xml version="1.0" encoding="UTF-8"?>
<!DOCTYPE svg PUBLIC "-//W3C//DTD SVG 1.1//EN" "http://www.w3.org/Graphics/SVG/1.1/DTD/svg11.dtd">
<svg version="1.1" xmlns="http://www.w3.org/2000/svg" xmlns:xlink="http://www.w3.org/1999/xlink" x="0" y="0" width="16" height="16" viewBox="0, 0, 32, 32">
  <g>
    <path d="M32,0 L32,32 L0,32 L0,0 L32,0 z M16.048,17.304 Q15.264,17.304 14.52,17.504 Q13.776,17.704 13.192,18.112 Q12.608,18.52 12.256,19.152 Q11.904,19.784 11.904,20.648 Q11.904,21.432 12.216,21.952 Q12.528,22.472 13.048,22.8 Q13.568,23.128 14.224,23.328 Q14.88,23.528 15.56,23.68 Q16.24,23.832 16.896,23.976 Q17.552,24.12 18.072,24.352 Q18.592,24.584 18.904,24.952 Q19.216,25.32 19.216,25.912 Q19.216,26.536 18.96,26.936 Q18.704,27.336 18.288,27.568 Q17.872,27.8 17.352,27.896 Q16.832,27.992 16.32,27.992 Q15.68,27.992 15.072,27.832 Q14.464,27.672 14.008,27.336 Q13.552,27 13.272,26.48 Q12.992,25.96 12.992,25.24 L11.552,25.24 Q11.552,26.28 11.928,27.04 Q12.304,27.8 12.952,28.288 Q13.6,28.776 14.456,29.016 Q15.312,29.256 16.272,29.256 Q17.056,29.256 17.848,29.072 Q18.64,28.888 19.28,28.48 Q19.92,28.072 20.328,27.424 Q20.736,26.776 20.736,25.864 Q20.736,25.016 20.424,24.456 Q20.112,23.896 19.592,23.528 Q19.072,23.16 18.416,22.944 Q17.76,22.728 17.08,22.568 Q16.4,22.408 15.744,22.272 Q15.088,22.136 14.568,21.928 Q14.048,21.72 13.736,21.392 Q13.424,21.064 13.424,20.536 Q13.424,19.976 13.64,19.6 Q13.856,19.224 14.216,19 Q14.576,18.776 15.04,18.68 Q15.504,18.584 15.984,18.584 Q17.168,18.584 17.928,19.136 Q18.688,19.688 18.816,20.92 L20.256,20.92 Q20.224,19.976 19.896,19.296 Q19.568,18.616 19,18.168 Q18.432,17.72 17.68,17.512 Q16.928,17.304 16.048,17.304 z M24.096,17.576 L22.576,17.576 L22.576,29 L30.144,29 L30.144,27.72 L24.096,27.72 L24.096,17.576 z M10.944,17.576 L1.808,17.576 L1.808,18.856 L5.616,18.856 L5.616,29 L7.136,29 L7.136,18.856 L10.944,18.856 L10.944,17.576 z" fill="#000000"/>
  </g>
</svg>
